<mxfile host="Electron" agent="Mozilla/5.0 (X11; Linux x86_64) AppleWebKit/537.36 (KHTML, like Gecko) draw.io/26.0.16 Chrome/132.0.6834.210 Electron/34.3.2 Safari/537.36" version="26.0.16" pages="5">
  <diagram name="1" id="c-xpoYoLWD-m8ST1OSj8">
    <mxGraphModel dx="830" dy="492" grid="1" gridSize="10" guides="1" tooltips="1" connect="1" arrows="1" fold="1" page="1" pageScale="1" pageWidth="320" pageHeight="160" math="0" shadow="0">
      <root>
        <mxCell id="kjtte8bsIh_mA2MLAnuS-0" />
        <mxCell id="kjtte8bsIh_mA2MLAnuS-1" parent="kjtte8bsIh_mA2MLAnuS-0" />
        <mxCell id="kjtte8bsIh_mA2MLAnuS-2" style="edgeStyle=orthogonalEdgeStyle;rounded=0;orthogonalLoop=1;jettySize=auto;html=1;exitX=1;exitY=0.5;exitDx=0;exitDy=0;entryX=0;entryY=0.5;entryDx=0;entryDy=0;fillColor=#f5f5f5;strokeColor=#666666;strokeWidth=2;" parent="kjtte8bsIh_mA2MLAnuS-1" source="kjtte8bsIh_mA2MLAnuS-3" target="kjtte8bsIh_mA2MLAnuS-4" edge="1">
          <mxGeometry relative="1" as="geometry" />
        </mxCell>
        <mxCell id="kjtte8bsIh_mA2MLAnuS-3" value="1" style="text;html=1;align=center;verticalAlign=middle;whiteSpace=wrap;rounded=0;fillColor=#dae8fc;strokeColor=#6c8ebf;fontSize=14;fontColor=#333333;" parent="kjtte8bsIh_mA2MLAnuS-1" vertex="1">
          <mxGeometry x="40" y="60" width="40" height="40" as="geometry" />
        </mxCell>
        <mxCell id="kjtte8bsIh_mA2MLAnuS-4" value="2" style="text;html=1;align=center;verticalAlign=middle;whiteSpace=wrap;rounded=0;fillColor=#f5f5f5;strokeColor=#666666;fontSize=14;fontColor=#333333;" parent="kjtte8bsIh_mA2MLAnuS-1" vertex="1">
          <mxGeometry x="100" y="60" width="40" height="40" as="geometry" />
        </mxCell>
        <mxCell id="kjtte8bsIh_mA2MLAnuS-5" value="head" style="text;html=1;align=center;verticalAlign=middle;whiteSpace=wrap;rounded=0;fontSize=10;" parent="kjtte8bsIh_mA2MLAnuS-1" vertex="1">
          <mxGeometry x="40" y="100" width="160" height="20" as="geometry" />
        </mxCell>
        <mxCell id="kjtte8bsIh_mA2MLAnuS-6" value="3" style="text;html=1;align=center;verticalAlign=middle;whiteSpace=wrap;rounded=0;fillColor=#f5f5f5;strokeColor=#666666;fontSize=14;fontColor=#333333;" parent="kjtte8bsIh_mA2MLAnuS-1" vertex="1">
          <mxGeometry x="160" y="60" width="40" height="40" as="geometry" />
        </mxCell>
        <mxCell id="kjtte8bsIh_mA2MLAnuS-7" style="edgeStyle=orthogonalEdgeStyle;rounded=0;orthogonalLoop=1;jettySize=auto;html=1;entryX=0;entryY=0.5;entryDx=0;entryDy=0;fillColor=#f5f5f5;strokeColor=#666666;strokeWidth=2;exitX=1;exitY=0.5;exitDx=0;exitDy=0;" parent="kjtte8bsIh_mA2MLAnuS-1" source="kjtte8bsIh_mA2MLAnuS-4" target="kjtte8bsIh_mA2MLAnuS-6" edge="1">
          <mxGeometry relative="1" as="geometry">
            <mxPoint x="150" y="90" as="sourcePoint" />
            <mxPoint x="110" y="90" as="targetPoint" />
          </mxGeometry>
        </mxCell>
        <mxCell id="kjtte8bsIh_mA2MLAnuS-12" value="current" style="text;html=1;align=center;verticalAlign=middle;whiteSpace=wrap;rounded=0;fontSize=10;" parent="kjtte8bsIh_mA2MLAnuS-1" vertex="1">
          <mxGeometry x="40" y="40" width="40" height="20" as="geometry" />
        </mxCell>
        <mxCell id="EKB3IfbQB6DW4Wh4WgHu-0" value="4" style="text;html=1;align=center;verticalAlign=middle;whiteSpace=wrap;rounded=0;fillColor=#f5f5f5;strokeColor=#666666;fontSize=14;fontColor=#333333;" parent="kjtte8bsIh_mA2MLAnuS-1" vertex="1">
          <mxGeometry x="240" y="60" width="40" height="40" as="geometry" />
        </mxCell>
        <mxCell id="EKB3IfbQB6DW4Wh4WgHu-2" value="data" style="text;html=1;align=center;verticalAlign=middle;whiteSpace=wrap;rounded=0;fontSize=10;" parent="kjtte8bsIh_mA2MLAnuS-1" vertex="1">
          <mxGeometry x="240" y="100" width="40" height="20" as="geometry" />
        </mxCell>
      </root>
    </mxGraphModel>
  </diagram>
  <diagram name="2" id="EuMY6-OqnmV8VLj9c4g6">
    <mxGraphModel dx="2074" dy="1231" grid="1" gridSize="10" guides="1" tooltips="1" connect="1" arrows="1" fold="1" page="1" pageScale="1" pageWidth="320" pageHeight="160" math="0" shadow="0">
      <root>
        <mxCell id="CEMaviC8A4Wve_qPNpHp-0" />
        <mxCell id="CEMaviC8A4Wve_qPNpHp-1" parent="CEMaviC8A4Wve_qPNpHp-0" />
        <mxCell id="CEMaviC8A4Wve_qPNpHp-2" style="edgeStyle=orthogonalEdgeStyle;rounded=0;orthogonalLoop=1;jettySize=auto;html=1;exitX=1;exitY=0.5;exitDx=0;exitDy=0;entryX=0;entryY=0.5;entryDx=0;entryDy=0;fillColor=#f5f5f5;strokeColor=#666666;strokeWidth=2;" parent="CEMaviC8A4Wve_qPNpHp-1" source="CEMaviC8A4Wve_qPNpHp-3" target="CEMaviC8A4Wve_qPNpHp-4" edge="1">
          <mxGeometry relative="1" as="geometry" />
        </mxCell>
        <mxCell id="CEMaviC8A4Wve_qPNpHp-3" value="1" style="text;html=1;align=center;verticalAlign=middle;whiteSpace=wrap;rounded=0;fillColor=#f5f5f5;strokeColor=#666666;fontSize=14;fontColor=#333333;" parent="CEMaviC8A4Wve_qPNpHp-1" vertex="1">
          <mxGeometry x="40" y="60" width="40" height="40" as="geometry" />
        </mxCell>
        <mxCell id="CEMaviC8A4Wve_qPNpHp-4" value="2" style="text;html=1;align=center;verticalAlign=middle;whiteSpace=wrap;rounded=0;fillColor=#dae8fc;strokeColor=#6c8ebf;fontSize=14;fontColor=#333333;" parent="CEMaviC8A4Wve_qPNpHp-1" vertex="1">
          <mxGeometry x="100" y="60" width="40" height="40" as="geometry" />
        </mxCell>
        <mxCell id="CEMaviC8A4Wve_qPNpHp-5" value="head" style="text;html=1;align=center;verticalAlign=middle;whiteSpace=wrap;rounded=0;fontSize=10;" parent="CEMaviC8A4Wve_qPNpHp-1" vertex="1">
          <mxGeometry x="40" y="100" width="160" height="20" as="geometry" />
        </mxCell>
        <mxCell id="CEMaviC8A4Wve_qPNpHp-6" value="3" style="text;html=1;align=center;verticalAlign=middle;whiteSpace=wrap;rounded=0;fillColor=#f5f5f5;strokeColor=#666666;fontSize=14;fontColor=#333333;" parent="CEMaviC8A4Wve_qPNpHp-1" vertex="1">
          <mxGeometry x="160" y="60" width="40" height="40" as="geometry" />
        </mxCell>
        <mxCell id="CEMaviC8A4Wve_qPNpHp-7" style="edgeStyle=orthogonalEdgeStyle;rounded=0;orthogonalLoop=1;jettySize=auto;html=1;entryX=0;entryY=0.5;entryDx=0;entryDy=0;fillColor=#f5f5f5;strokeColor=#666666;strokeWidth=2;exitX=1;exitY=0.5;exitDx=0;exitDy=0;" parent="CEMaviC8A4Wve_qPNpHp-1" source="CEMaviC8A4Wve_qPNpHp-4" target="CEMaviC8A4Wve_qPNpHp-6" edge="1">
          <mxGeometry relative="1" as="geometry">
            <mxPoint x="150" y="90" as="sourcePoint" />
            <mxPoint x="110" y="90" as="targetPoint" />
          </mxGeometry>
        </mxCell>
        <mxCell id="CEMaviC8A4Wve_qPNpHp-8" value="current" style="text;html=1;align=center;verticalAlign=middle;whiteSpace=wrap;rounded=0;fontSize=10;" parent="CEMaviC8A4Wve_qPNpHp-1" vertex="1">
          <mxGeometry x="100" y="40" width="40" height="20" as="geometry" />
        </mxCell>
        <mxCell id="sjQeTIbgUvGV8rDomeWO-0" value="4" style="text;html=1;align=center;verticalAlign=middle;whiteSpace=wrap;rounded=0;fillColor=#f5f5f5;strokeColor=#666666;fontSize=14;fontColor=#333333;" parent="CEMaviC8A4Wve_qPNpHp-1" vertex="1">
          <mxGeometry x="240" y="60" width="40" height="40" as="geometry" />
        </mxCell>
        <mxCell id="sjQeTIbgUvGV8rDomeWO-1" value="data" style="text;html=1;align=center;verticalAlign=middle;whiteSpace=wrap;rounded=0;fontSize=10;" parent="CEMaviC8A4Wve_qPNpHp-1" vertex="1">
          <mxGeometry x="240" y="100" width="40" height="20" as="geometry" />
        </mxCell>
      </root>
    </mxGraphModel>
  </diagram>
  <diagram name="3" id="2yFOHYflVxYxTW9T_w6C">
    <mxGraphModel dx="1185" dy="703" grid="1" gridSize="10" guides="1" tooltips="1" connect="1" arrows="1" fold="1" page="1" pageScale="1" pageWidth="320" pageHeight="160" math="0" shadow="0">
      <root>
        <mxCell id="9zunTDfDtjhJHcM51V1R-0" />
        <mxCell id="9zunTDfDtjhJHcM51V1R-1" parent="9zunTDfDtjhJHcM51V1R-0" />
        <mxCell id="9zunTDfDtjhJHcM51V1R-2" style="edgeStyle=orthogonalEdgeStyle;rounded=0;orthogonalLoop=1;jettySize=auto;html=1;exitX=1;exitY=0.5;exitDx=0;exitDy=0;entryX=0;entryY=0.5;entryDx=0;entryDy=0;fillColor=#f5f5f5;strokeColor=#666666;strokeWidth=2;" parent="9zunTDfDtjhJHcM51V1R-1" source="9zunTDfDtjhJHcM51V1R-3" target="9zunTDfDtjhJHcM51V1R-4" edge="1">
          <mxGeometry relative="1" as="geometry" />
        </mxCell>
        <mxCell id="9zunTDfDtjhJHcM51V1R-3" value="1" style="text;html=1;align=center;verticalAlign=middle;whiteSpace=wrap;rounded=0;fillColor=#f5f5f5;strokeColor=#666666;fontSize=14;fontColor=#333333;" parent="9zunTDfDtjhJHcM51V1R-1" vertex="1">
          <mxGeometry x="40" y="60" width="40" height="40" as="geometry" />
        </mxCell>
        <mxCell id="9zunTDfDtjhJHcM51V1R-4" value="2" style="text;html=1;align=center;verticalAlign=middle;whiteSpace=wrap;rounded=0;fillColor=#f5f5f5;strokeColor=#666666;fontSize=14;fontColor=#333333;" parent="9zunTDfDtjhJHcM51V1R-1" vertex="1">
          <mxGeometry x="100" y="60" width="40" height="40" as="geometry" />
        </mxCell>
        <mxCell id="9zunTDfDtjhJHcM51V1R-5" value="head" style="text;html=1;align=center;verticalAlign=middle;whiteSpace=wrap;rounded=0;fontSize=10;" parent="9zunTDfDtjhJHcM51V1R-1" vertex="1">
          <mxGeometry x="40" y="100" width="160" height="20" as="geometry" />
        </mxCell>
        <mxCell id="9zunTDfDtjhJHcM51V1R-6" value="3" style="text;html=1;align=center;verticalAlign=middle;whiteSpace=wrap;rounded=0;fillColor=#dae8fc;strokeColor=#6c8ebf;fontSize=14;fontColor=#333333;" parent="9zunTDfDtjhJHcM51V1R-1" vertex="1">
          <mxGeometry x="160" y="60" width="40" height="40" as="geometry" />
        </mxCell>
        <mxCell id="9zunTDfDtjhJHcM51V1R-7" style="edgeStyle=orthogonalEdgeStyle;rounded=0;orthogonalLoop=1;jettySize=auto;html=1;entryX=0;entryY=0.5;entryDx=0;entryDy=0;fillColor=#f5f5f5;strokeColor=#666666;strokeWidth=2;exitX=1;exitY=0.5;exitDx=0;exitDy=0;" parent="9zunTDfDtjhJHcM51V1R-1" source="9zunTDfDtjhJHcM51V1R-4" target="9zunTDfDtjhJHcM51V1R-6" edge="1">
          <mxGeometry relative="1" as="geometry">
            <mxPoint x="150" y="90" as="sourcePoint" />
            <mxPoint x="110" y="90" as="targetPoint" />
          </mxGeometry>
        </mxCell>
        <mxCell id="9zunTDfDtjhJHcM51V1R-8" value="current" style="text;html=1;align=center;verticalAlign=middle;whiteSpace=wrap;rounded=0;fontSize=10;" parent="9zunTDfDtjhJHcM51V1R-1" vertex="1">
          <mxGeometry x="160" y="40" width="40" height="20" as="geometry" />
        </mxCell>
        <mxCell id="vqwZJBiFoVSxvjHdGb98-0" value="4" style="text;html=1;align=center;verticalAlign=middle;whiteSpace=wrap;rounded=0;fillColor=#f5f5f5;strokeColor=#666666;fontSize=14;fontColor=#333333;" parent="9zunTDfDtjhJHcM51V1R-1" vertex="1">
          <mxGeometry x="240" y="60" width="40" height="40" as="geometry" />
        </mxCell>
        <mxCell id="vqwZJBiFoVSxvjHdGb98-1" value="data" style="text;html=1;align=center;verticalAlign=middle;whiteSpace=wrap;rounded=0;fontSize=10;" parent="9zunTDfDtjhJHcM51V1R-1" vertex="1">
          <mxGeometry x="240" y="100" width="40" height="20" as="geometry" />
        </mxCell>
      </root>
    </mxGraphModel>
  </diagram>
  <diagram name="4" id="S9gzHC4e3jR8QeRpVS6W">
    <mxGraphModel dx="830" dy="492" grid="1" gridSize="10" guides="1" tooltips="1" connect="1" arrows="1" fold="1" page="1" pageScale="1" pageWidth="320" pageHeight="160" math="0" shadow="0">
      <root>
        <mxCell id="6HTau2o0krJsIeY-nloc-0" />
        <mxCell id="6HTau2o0krJsIeY-nloc-1" parent="6HTau2o0krJsIeY-nloc-0" />
        <mxCell id="6HTau2o0krJsIeY-nloc-2" style="edgeStyle=orthogonalEdgeStyle;rounded=0;orthogonalLoop=1;jettySize=auto;html=1;exitX=1;exitY=0.5;exitDx=0;exitDy=0;entryX=0;entryY=0.5;entryDx=0;entryDy=0;fillColor=#f5f5f5;strokeColor=#666666;strokeWidth=2;" edge="1" parent="6HTau2o0krJsIeY-nloc-1" source="6HTau2o0krJsIeY-nloc-3" target="6HTau2o0krJsIeY-nloc-4">
          <mxGeometry relative="1" as="geometry" />
        </mxCell>
        <mxCell id="6HTau2o0krJsIeY-nloc-3" value="1" style="text;html=1;align=center;verticalAlign=middle;whiteSpace=wrap;rounded=0;fillColor=#f5f5f5;strokeColor=#666666;fontSize=14;fontColor=#333333;" vertex="1" parent="6HTau2o0krJsIeY-nloc-1">
          <mxGeometry x="40" y="60" width="40" height="40" as="geometry" />
        </mxCell>
        <mxCell id="6HTau2o0krJsIeY-nloc-4" value="2" style="text;html=1;align=center;verticalAlign=middle;whiteSpace=wrap;rounded=0;fillColor=#f5f5f5;strokeColor=#666666;fontSize=14;fontColor=#333333;" vertex="1" parent="6HTau2o0krJsIeY-nloc-1">
          <mxGeometry x="100" y="60" width="40" height="40" as="geometry" />
        </mxCell>
        <mxCell id="6HTau2o0krJsIeY-nloc-5" value="head" style="text;html=1;align=center;verticalAlign=middle;whiteSpace=wrap;rounded=0;fontSize=10;" vertex="1" parent="6HTau2o0krJsIeY-nloc-1">
          <mxGeometry x="40" y="100" width="160" height="20" as="geometry" />
        </mxCell>
        <mxCell id="6HTau2o0krJsIeY-nloc-6" value="3" style="text;html=1;align=center;verticalAlign=middle;whiteSpace=wrap;rounded=0;fillColor=#dae8fc;strokeColor=#6c8ebf;fontSize=14;fontColor=#333333;" vertex="1" parent="6HTau2o0krJsIeY-nloc-1">
          <mxGeometry x="160" y="60" width="40" height="40" as="geometry" />
        </mxCell>
        <mxCell id="6HTau2o0krJsIeY-nloc-7" style="edgeStyle=orthogonalEdgeStyle;rounded=0;orthogonalLoop=1;jettySize=auto;html=1;entryX=0;entryY=0.5;entryDx=0;entryDy=0;fillColor=#f5f5f5;strokeColor=#666666;strokeWidth=2;exitX=1;exitY=0.5;exitDx=0;exitDy=0;" edge="1" parent="6HTau2o0krJsIeY-nloc-1" source="6HTau2o0krJsIeY-nloc-4" target="6HTau2o0krJsIeY-nloc-6">
          <mxGeometry relative="1" as="geometry">
            <mxPoint x="150" y="90" as="sourcePoint" />
            <mxPoint x="110" y="90" as="targetPoint" />
          </mxGeometry>
        </mxCell>
        <mxCell id="6HTau2o0krJsIeY-nloc-8" value="current" style="text;html=1;align=center;verticalAlign=middle;whiteSpace=wrap;rounded=0;fontSize=10;" vertex="1" parent="6HTau2o0krJsIeY-nloc-1">
          <mxGeometry x="160" y="40" width="40" height="20" as="geometry" />
        </mxCell>
        <mxCell id="AtnSONxulq2h3Jl2UCa2-0" value="4" style="text;html=1;align=center;verticalAlign=middle;whiteSpace=wrap;rounded=0;fillColor=#f5f5f5;strokeColor=#666666;fontSize=14;fontColor=#333333;" vertex="1" parent="6HTau2o0krJsIeY-nloc-1">
          <mxGeometry x="240" y="60" width="40" height="40" as="geometry" />
        </mxCell>
        <mxCell id="AtnSONxulq2h3Jl2UCa2-1" value="data" style="text;html=1;align=center;verticalAlign=middle;whiteSpace=wrap;rounded=0;fontSize=10;" vertex="1" parent="6HTau2o0krJsIeY-nloc-1">
          <mxGeometry x="240" y="100" width="40" height="20" as="geometry" />
        </mxCell>
      </root>
    </mxGraphModel>
  </diagram>
  <diagram name="5" id="i67inPStD0YdlGPzHKxx">
    <mxGraphModel dx="988" dy="586" grid="1" gridSize="10" guides="1" tooltips="1" connect="1" arrows="1" fold="1" page="1" pageScale="1" pageWidth="300" pageHeight="160" math="0" shadow="0">
      <root>
        <mxCell id="lsxw4NHDAZUdkkM-QDsp-0" />
        <mxCell id="lsxw4NHDAZUdkkM-QDsp-1" parent="lsxw4NHDAZUdkkM-QDsp-0" />
        <mxCell id="lsxw4NHDAZUdkkM-QDsp-2" style="edgeStyle=orthogonalEdgeStyle;rounded=0;orthogonalLoop=1;jettySize=auto;html=1;exitX=1;exitY=0.5;exitDx=0;exitDy=0;entryX=0;entryY=0.5;entryDx=0;entryDy=0;fillColor=#f5f5f5;strokeColor=#666666;strokeWidth=2;" parent="lsxw4NHDAZUdkkM-QDsp-1" source="lsxw4NHDAZUdkkM-QDsp-3" target="lsxw4NHDAZUdkkM-QDsp-4" edge="1">
          <mxGeometry relative="1" as="geometry" />
        </mxCell>
        <mxCell id="lsxw4NHDAZUdkkM-QDsp-3" value="1" style="text;html=1;align=center;verticalAlign=middle;whiteSpace=wrap;rounded=0;fillColor=#f5f5f5;strokeColor=#666666;fontSize=14;fontColor=#333333;" parent="lsxw4NHDAZUdkkM-QDsp-1" vertex="1">
          <mxGeometry x="40" y="60" width="40" height="40" as="geometry" />
        </mxCell>
        <mxCell id="lsxw4NHDAZUdkkM-QDsp-4" value="2" style="text;html=1;align=center;verticalAlign=middle;whiteSpace=wrap;rounded=0;fillColor=#f5f5f5;strokeColor=#666666;fontSize=14;fontColor=#333333;" parent="lsxw4NHDAZUdkkM-QDsp-1" vertex="1">
          <mxGeometry x="100" y="60" width="40" height="40" as="geometry" />
        </mxCell>
        <mxCell id="lsxw4NHDAZUdkkM-QDsp-5" value="head" style="text;html=1;align=center;verticalAlign=middle;whiteSpace=wrap;rounded=0;fontSize=10;" parent="lsxw4NHDAZUdkkM-QDsp-1" vertex="1">
          <mxGeometry x="40" y="100" width="220" height="20" as="geometry" />
        </mxCell>
        <mxCell id="lsxw4NHDAZUdkkM-QDsp-6" value="3" style="text;html=1;align=center;verticalAlign=middle;whiteSpace=wrap;rounded=0;fillColor=#dae8fc;strokeColor=#6c8ebf;fontSize=14;fontColor=#333333;" parent="lsxw4NHDAZUdkkM-QDsp-1" vertex="1">
          <mxGeometry x="160" y="60" width="40" height="40" as="geometry" />
        </mxCell>
        <mxCell id="lsxw4NHDAZUdkkM-QDsp-7" style="edgeStyle=orthogonalEdgeStyle;rounded=0;orthogonalLoop=1;jettySize=auto;html=1;entryX=0;entryY=0.5;entryDx=0;entryDy=0;fillColor=#f5f5f5;strokeColor=#666666;strokeWidth=2;exitX=1;exitY=0.5;exitDx=0;exitDy=0;" parent="lsxw4NHDAZUdkkM-QDsp-1" source="lsxw4NHDAZUdkkM-QDsp-4" target="lsxw4NHDAZUdkkM-QDsp-6" edge="1">
          <mxGeometry relative="1" as="geometry">
            <mxPoint x="150" y="90" as="sourcePoint" />
            <mxPoint x="110" y="90" as="targetPoint" />
          </mxGeometry>
        </mxCell>
        <mxCell id="lsxw4NHDAZUdkkM-QDsp-8" value="current" style="text;html=1;align=center;verticalAlign=middle;whiteSpace=wrap;rounded=0;fontSize=10;" parent="lsxw4NHDAZUdkkM-QDsp-1" vertex="1">
          <mxGeometry x="160" y="40" width="40" height="20" as="geometry" />
        </mxCell>
        <mxCell id="lsxw4NHDAZUdkkM-QDsp-9" value="4" style="text;html=1;align=center;verticalAlign=middle;whiteSpace=wrap;rounded=0;fillColor=#d5e8d4;strokeColor=#82b366;fontSize=14;fontColor=#333333;" parent="lsxw4NHDAZUdkkM-QDsp-1" vertex="1">
          <mxGeometry x="220" y="60" width="40" height="40" as="geometry" />
        </mxCell>
        <mxCell id="lsxw4NHDAZUdkkM-QDsp-10" value="data" style="text;html=1;align=center;verticalAlign=middle;whiteSpace=wrap;rounded=0;fontSize=10;" parent="lsxw4NHDAZUdkkM-QDsp-1" vertex="1">
          <mxGeometry x="220" y="40" width="40" height="20" as="geometry" />
        </mxCell>
        <mxCell id="BeIi4bO7uWW_l5nXCzRc-0" style="edgeStyle=orthogonalEdgeStyle;rounded=0;orthogonalLoop=1;jettySize=auto;html=1;entryX=0;entryY=0.5;entryDx=0;entryDy=0;fillColor=#f5f5f5;strokeColor=#666666;strokeWidth=2;exitX=1;exitY=0.5;exitDx=0;exitDy=0;" parent="lsxw4NHDAZUdkkM-QDsp-1" source="lsxw4NHDAZUdkkM-QDsp-6" target="lsxw4NHDAZUdkkM-QDsp-9" edge="1">
          <mxGeometry relative="1" as="geometry">
            <mxPoint x="150" y="90" as="sourcePoint" />
            <mxPoint x="170" y="90" as="targetPoint" />
          </mxGeometry>
        </mxCell>
      </root>
    </mxGraphModel>
  </diagram>
</mxfile>
